<?xml version="1.0" encoding="UTF-8"?>
<svg data-bbox="-0.104 0.04 56.929 61.36" viewBox="0 0 56.72 61.4" xmlns="http://www.w3.org/2000/svg" data-type="color">
    <g>
        <g>
            <path d="M52.29 52.23a1.27 1.27 0 0 1-.38-.07l-1.43-.54a12.38 12.38 0 0 0-8.69 0l-1.43.54a1.13 1.13 0 0 1-1-.13 1.09 1.09 0 0 1-.46-.89v-43a1.1 1.1 0 0 1 .32-.77 1.06 1.06 0 0 1 .78-.31h12.3a1.09 1.09 0 0 1 1.09 1.09v43a1.1 1.1 0 0 1-1.09 1.09zm-6.16-3.57a14.56 14.56 0 0 1 5.08.91V9.23H41.06v40.34a14.51 14.51 0 0 1 5.07-.91z" fill="#2b2854" data-color="1"/>
            <path d="M46.13 61.08a1.07 1.07 0 0 1-.89-.47l-6.16-8.85a1.09 1.09 0 0 1 1.79-1.24l5.26 7.57 5.27-7.57a1.07 1.07 0 0 1 1.51-.27 1.08 1.08 0 0 1 .28 1.51L47 60.61a1.09 1.09 0 0 1-.87.47z" fill="#2b2854" data-color="1"/>
            <path d="M46.13 50.83a1.08 1.08 0 0 1-1.08-1.09V8.15a1.09 1.09 0 0 1 2.18 0v41.59a1.09 1.09 0 0 1-1.1 1.09z" fill="#2b2854" data-color="1"/>
            <path d="M52.33 9.23H40a2.63 2.63 0 0 1-2.68-2.63V3.54a3.52 3.52 0 0 1 1-2.5 3.5 3.5 0 0 1 2.5-1h10.6A3.55 3.55 0 0 1 55 3.54v3.07a2.62 2.62 0 0 1-2.67 2.62zM40.86 2.17a1.37 1.37 0 0 0-1.37 1.37V6.6a.47.47 0 0 0 .46.46h12.38a.45.45 0 0 0 .45-.45V3.54a1.36 1.36 0 0 0-1.36-1.36z" fill="#2b2854" data-color="1"/>
            <path d="M33.43 10.19H1.09a1.09 1.09 0 0 1 0-2.19h32.34a1.09 1.09 0 1 1 0 2.17z" fill="#2b2854" data-color="1"/>
            <path d="M33.43 17.51H1.09a1.09 1.09 0 0 1 0-2.18h32.34a1.09 1.09 0 1 1 0 2.18z" fill="#2b2854" data-color="1"/>
            <path d="M33.43 24.82H1.09a1.09 1.09 0 1 1 0-2.17h32.34a1.09 1.09 0 1 1 0 2.17z" fill="#2b2854" data-color="1"/>
            <path d="M33.43 32.14H1.09a1.09 1.09 0 0 1 0-2.18h32.34a1.09 1.09 0 1 1 0 2.17z" fill="#2b2854" data-color="1"/>
            <path d="M33.43 39.45H1.09a1.09 1.09 0 1 1 0-2.17h32.34a1.09 1.09 0 1 1 0 2.17z" fill="#2b2854" data-color="1"/>
            <path d="M33.43 46.77H1.09a1.09 1.09 0 0 1 0-2.18h32.34a1.09 1.09 0 1 1 0 2.17z" fill="#2b2854" data-color="1"/>
            <path d="M33.43 54.08H1.09a1.09 1.09 0 1 1 0-2.17h32.34a1.09 1.09 0 1 1 0 2.17z" fill="#2b2854" data-color="1"/>
            <path d="M55.63 61.4H1.09a1.09 1.09 0 0 1 0-2.18h54.54a1.09 1.09 0 1 1 0 2.17z" fill="#2b2854" data-color="1"/>
        </g>
    </g>
</svg>
