<?xml version="1.0" encoding="UTF-8"?>
<svg data-bbox="0 0 65.48 44.5" viewBox="0 0 65.48 44.5" xmlns="http://www.w3.org/2000/svg" data-type="color">
    <g>
        <g>
            <g>
                <path fill="#72aebe" d="M65.48 6.89v31.49a6.12 6.12 0 0 1-6.12 6.12H6.12A6.12 6.12 0 0 1 0 38.38V6.89A6.12 6.12 0 0 1 6.12.77h53.24a6.12 6.12 0 0 1 6.12 6.12z" data-color="1"/>
                <g>
                    <g>
                        <path d="M49.24 36a.63.63 0 0 1-.24 0l-1-.37a8.44 8.44 0 0 0-6 0L41 36a.77.77 0 0 1-1-.44.82.82 0 0 1 0-.26V5.61a.76.76 0 0 1 .75-.75h8.49a.75.75 0 0 1 .75.75v29.63a.75.75 0 0 1-.75.75zM45 33.53a10 10 0 0 1 3.5.64V6.36h-7v27.81a10 10 0 0 1 3.5-.63z" fill="#1e2041" data-color="2"/>
                        <path d="M45 42.1a.75.75 0 0 1-.62-.32l-4.24-6.11a.75.75 0 0 1 1.21-.88L45 40l3.63-5.22a.75.75 0 0 1 1.23.85l-4.26 6.15a.75.75 0 0 1-.6.32z" fill="#1e2041" data-color="2"/>
                        <path d="M45 35a.75.75 0 0 1-.75-.75V5.62a.75.75 0 1 1 1.5 0v28.66A.75.75 0 0 1 45 35z" fill="#1e2041" data-color="2"/>
                        <path d="M49.26 6.36h-8.54a1.82 1.82 0 0 1-1.81-1.81V2.44A2.44 2.44 0 0 1 41.35 0h7.28a2.44 2.44 0 0 1 2.44 2.44v2.11a1.81 1.81 0 0 1-1.81 1.81zm-7.9-4.86a1 1 0 0 0-1 .94v2.11a.31.31 0 0 0 .31.31h8.54a.31.31 0 0 0 .31-.31V2.44a.94.94 0 0 0-.94-.94z" fill="#1e2041" data-color="2"/>
                        <path d="M36.24 7h-22.3a.75.75 0 1 1 0-1.49h22.3a.75.75 0 0 1 0 1.5z" fill="#1e2041" data-color="2"/>
                        <path d="M36.24 12.07h-22.3a.75.75 0 0 1 0-1.5h22.3a.74.74 0 0 1 .76.73.75.75 0 0 1-.73.77z" fill="#1e2041" data-color="2"/>
                        <path d="M36.23 17.11H13.94a.75.75 0 0 1-.76-.73.74.74 0 0 1 .73-.77h22.32a.75.75 0 0 1 0 1.5z" fill="#1e2041" data-color="2"/>
                        <path d="M36.23 22.15H13.94a.75.75 0 1 1 0-1.5h22.29a.75.75 0 0 1 0 1.5z" fill="#1e2041" data-color="2"/>
                        <path d="M36.23 27.19H13.94a.75.75 0 0 1 0-1.5h22.29a.75.75 0 0 1 0 1.49z" fill="#1e2041" data-color="2"/>
                        <path d="M36.23 32.23H13.94a.75.75 0 0 1 0-1.49h22.29a.75.75 0 1 1 0 1.49z" fill="#1e2041" data-color="2"/>
                        <path d="M36.23 37.28H13.94a.76.76 0 0 1-.77-.74.75.75 0 0 1 .73-.76h22.33a.74.74 0 0 1 .73.76.76.76 0 0 1-.73.74z" fill="#1e2041" data-color="2"/>
                        <path d="M51.53 42.32H13.94a.75.75 0 1 1 0-1.5h37.59a.75.75 0 0 1 0 1.5z" fill="#1e2041" data-color="2"/>
                    </g>
                </g>
            </g>
        </g>
    </g>
</svg>
