<?xml version="1.0" encoding="UTF-8"?>
<svg data-bbox="0 0 65.48 43.73" viewBox="0 0 65.48 43.73" xmlns="http://www.w3.org/2000/svg" data-type="color">
    <g>
        <g>
            <g>
                <path style="isolation:isolate" fill="#b94a91" opacity=".43" d="M65.48 6.12v31.49a6.12 6.12 0 0 1-6.12 6.12H6.12A6.12 6.12 0 0 1 0 37.61V6.12A6.12 6.12 0 0 1 6.12 0h53.24a6.12 6.12 0 0 1 6.12 6.12z" data-color="1"/>
                <g>
                    <g>
                        <path d="M58.2 40.63a.78.78 0 0 1-.78-.78V28a.9.9 0 0 1 .08-.36l3.15-6.19a13.15 13.15 0 0 0 1.43-6 10.79 10.79 0 0 0-17.32-8.6 11.92 11.92 0 0 0-2.56 2.78 11.86 11.86 0 0 0-1.71 5.83l-.23 6.63v6.42A1.71 1.71 0 0 0 42 30.22h3.53a.78.78 0 0 1 .78.78v8.85a.78.78 0 0 1-1.56 0v-8.07H42a3.26 3.26 0 0 1-3.27-3.27v-6.45l.23-6.63a13.85 13.85 0 0 1 1.89-6.54 13.3 13.3 0 0 1 3-3.27 12.36 12.36 0 0 1 19.84 9.84A14.73 14.73 0 0 1 62 22.13l-3.06 6v11.72a.78.78 0 0 1-.78.78z" fill="#1e2041" data-color="2"/>
                        <path d="M55.34 26.46a.78.78 0 0 1-.78-.78.82.82 0 0 1 .08-.35L57 20.66a9.61 9.61 0 0 0 1.06-4.4.78.78 0 0 1 .78-.78.79.79 0 0 1 .79.78 11.45 11.45 0 0 1-1.23 5.11L56 26a.76.76 0 0 1-.66.46z" fill="#1e2041" data-color="2"/>
                        <path d="M20 40.63a.78.78 0 0 1-.78-.78V31a.78.78 0 0 1 .78-.78h3.53a1.71 1.71 0 0 0 1.71-1.71v-6.45L25 15.49a12 12 0 0 0-1.71-5.86 11.57 11.57 0 0 0-2.57-2.78A10.8 10.8 0 0 0 3.4 15.46a13.31 13.31 0 0 0 1.42 6L8 27.62a.73.73 0 0 1 .09.35v11.88a.8.8 0 0 1-.78.79.79.79 0 0 1-.79-.79V28.16l-3.06-6a14.7 14.7 0 0 1-1.6-6.67A12.38 12.38 0 0 1 14.19 3.1a12.21 12.21 0 0 1 7.47 2.51 13.39 13.39 0 0 1 3 3.28 13.81 13.81 0 0 1 1.89 6.57l.23 6.54v6.47a3.26 3.26 0 0 1-3.27 3.27h-2.75v8.07a.77.77 0 0 1-.76.82z" fill="#1e2041" data-color="2"/>
                        <path d="M6.26 16.46a.78.78 0 0 1-.79-.78 9.14 9.14 0 0 1 9.14-9.13.78.78 0 1 1 0 1.56A7.58 7.58 0 0 0 7 15.68a.78.78 0 0 1-.74.78z" fill="#1e2041" data-color="2"/>
                        <path d="M36.73 28.36h-8a.79.79 0 0 1 0-1.57h8a.79.79 0 0 1 0 1.57z" fill="#1e2041" data-color="2"/>
                        <path d="M30.58 29.88a.78.78 0 0 1-.5-.19l-1.81-1.52a.79.79 0 0 1-.1-1.1l.09-.09 1.81-1.57a.78.78 0 1 1 1 1.18l-1.12 1 1.11.93a.79.79 0 0 1 .09 1.11.78.78 0 0 1-.57.25z" fill="#1e2041" data-color="2"/>
                        <path d="M36.73 13.8h-8a.78.78 0 0 1 0-1.56h8a.78.78 0 1 1 0 1.56z" fill="#1e2041" data-color="2"/>
                        <path d="M34.92 15.38a.78.78 0 0 1-.78-.79.8.8 0 0 1 .27-.59l1.12-1-1.11-.93a.78.78 0 0 1 1-1.2l1.82 1.52a.78.78 0 0 1 .09 1.1l-.08.09-1.82 1.57a.74.74 0 0 1-.51.23z" fill="#1e2041" data-color="2"/>
                        <path d="M20 31.78h-5.95a.78.78 0 1 1 0-1.56H20a.78.78 0 1 1 0 1.56z" fill="#1e2041" data-color="2"/>
                        <path d="M52.59 31.78h-7.1a.78.78 0 0 1 0-1.56h7.1a.78.78 0 1 1 0 1.56z" fill="#1e2041" data-color="2"/>
                    </g>
                </g>
            </g>
        </g>
    </g>
</svg>
