<?xml version="1.0" encoding="UTF-8"?>
<svg data-bbox="0 0 116.1 86.35" viewBox="0 0 116.1 86.35" xmlns="http://www.w3.org/2000/svg" data-type="color">
    <g>
        <g>
            <path fill="#f2d65b" d="M116.1 12.72v60.91c0 7.025-5.695 12.72-12.72 12.72H12.72C5.695 86.35 0 80.655 0 73.63V12.72C0 5.695 5.695 0 12.72 0h90.66c7.025 0 12.72 5.695 12.72 12.72z" data-color="1"/>
            <g>
                <path d="M72.64 56.75a1.12 1.12 0 0 0-1.12 1.12 1.36 1.36 0 0 1-1.21 1.46H48.45a1.36 1.36 0 0 1-1.21-1.46 1.12 1.12 0 1 0-2.23 0 3.58 3.58 0 0 0 3.32 3.68v1.51a1.11 1.11 0 0 0 0 2.22v1.51a1.11 1.11 0 0 0 0 2.21v.29a3.46 3.46 0 0 0 3.45 3.45h3.13v.91a2.81 2.81 0 0 0 2.81 2.81H61a2.81 2.81 0 0 0 2.81-2.81v-.91H67a3.46 3.46 0 0 0 3.45-3.45V69a1.11 1.11 0 0 0 .87-1.09 1.12 1.12 0 0 0-.87-1.09v-1.56a1.12 1.12 0 0 0 0-2.18v-1.53a3.59 3.59 0 0 0 3.33-3.68 1.12 1.12 0 0 0-1.14-1.12zm-11 16.9a.58.58 0 0 1-.58.58h-3.34a.57.57 0 0 1-.57-.58v-.91h4.47zM67 70.5H51.78a1.21 1.21 0 0 1-1.21-1.21V69h1.73a1.12 1.12 0 1 0 0-2.23h-1.73v-1.48h1.73a1.12 1.12 0 0 0 0-2.24h-1.73v-1.49h17.62v1.49h-2.1a1.12 1.12 0 0 0 0 2.24h2.1v1.49h-2.1a1.12 1.12 0 1 0 0 2.23h2.1v.28A1.21 1.21 0 0 1 67 70.5z" fill="#2b2854" data-color="2"/>
                <path d="M61.24 63.05h-4.09a1.12 1.12 0 1 0 0 2.24h4.09a1.12 1.12 0 0 0 0-2.24z" fill="#2b2854" data-color="2"/>
                <path d="M61.24 66.78h-4.09a1.12 1.12 0 1 0 0 2.23h4.09a1.12 1.12 0 1 0 0-2.23z" fill="#2b2854" data-color="2"/>
                <path d="M61.73 9.89A1.12 1.12 0 0 0 60.5 11v45.34a1.12 1.12 0 0 0 1.12 1.12h4.59a4.28 4.28 0 0 0 4.27-4.28V50a2.08 2.08 0 0 1 .93-1.7 21.42 21.42 0 0 0 9.4-17.73c0-10.92-8.03-19.57-19.08-20.68zm8.42 36.51a4.31 4.31 0 0 0-1.9 3.6v3.23a2 2 0 0 1-2 2h-3.52V12.27a18.34 18.34 0 0 1 15.85 18.25 19.18 19.18 0 0 1-8.43 15.88z" fill="#2b2854" data-color="2"/>
                <path d="M73.21 33.18a1.11 1.11 0 0 0-1.41.71 12.11 12.11 0 0 1-2 3.77 1.11 1.11 0 0 0 .87 1.81 1.13 1.13 0 0 0 .87-.41 14.28 14.28 0 0 0 2.42-4.47 1.1 1.1 0 0 0-.75-1.41z" fill="#2b2854" data-color="2"/>
                <path d="M68.15 18.5A1.12 1.12 0 1 0 67 20.4a11.3 11.3 0 0 1 5.39 8.78 1.1 1.1 0 0 0 1.11 1h.09a1.12 1.12 0 0 0 1-1.2 13.52 13.52 0 0 0-6.44-10.48z" fill="#2b2854" data-color="2"/>
                <path d="M47.21 48.28h.15a2 2 0 0 1 .92 1.68v3.24a4.28 4.28 0 0 0 4.27 4.28h4.6a1.12 1.12 0 0 0 1.11-1.12V14.18a3.73 3.73 0 0 0-4.77-3.58c-.59.16-1.17.36-1.73.57a7.17 7.17 0 0 0-9.88 6.52 7.22 7.22 0 0 0-5.52 7.92 7.37 7.37 0 0 0 .93 2.73 7.18 7.18 0 0 0 2.07 11.44 6.86 6.86 0 0 0-.09 2.12 7.13 7.13 0 0 0 7.94 6.38zm-5.72-6.62a5 5 0 0 1 0-1.22 7.77 7.77 0 0 0 1 .07A7.23 7.23 0 0 0 45.2 40a1.12 1.12 0 1 0-.84-2.07 5 5 0 0 1-5.64-7.84c.13.11.25.23.38.33a7.15 7.15 0 0 0 4.4 1.51 7.22 7.22 0 0 0 .92-.06 7.56 7.56 0 0 0 1.25-.29A7.18 7.18 0 0 0 49 35.4a1.16 1.16 0 0 0 .54.13 1.12 1.12 0 0 0 1-.58 1.13 1.13 0 0 0-.54-1.52 5 5 0 0 1-2-6.74 1.12 1.12 0 0 0-2-1.07 7.14 7.14 0 0 0-.87 3.73 5 5 0 0 1-1.09.28 5 5 0 0 1-2-9.71 7.27 7.27 0 0 0 2.14 3.34 1.13 1.13 0 0 0 .74.27 1.11 1.11 0 0 0 .73-2 5 5 0 0 1 5.52-8.17 1.13 1.13 0 0 0 1.21-.14c.52-.19 1-.37 1.58-.52a1.5 1.5 0 0 1 1.34.25 1.47 1.47 0 0 1 .7 1.23v4.24a7.31 7.31 0 0 0-1.68-1.08 7.16 7.16 0 0 0-5.51-.21 1.12 1.12 0 0 0-.66 1.43 1.13 1.13 0 0 0 1.44.67A5 5 0 0 1 56 22.17v33h-3.45a2 2 0 0 1-2-2v-3.23a4.26 4.26 0 0 0-.76-2.42 7.16 7.16 0 0 0 3.84-5.58 1.12 1.12 0 0 0-2.23-.25 5 5 0 0 1-9.87 0z" fill="#2b2854" data-color="2"/>
            </g>
        </g>
    </g>
</svg>
