<?xml version="1.0" encoding="UTF-8"?>
<svg data-bbox="0 -0.007 65.48 45.947" viewBox="0 0 65.48 45.89" xmlns="http://www.w3.org/2000/svg" data-type="color">
    <g>
        <g>
            <path fill="#f8cc42" d="M65.48 7.25v31.49a6.12 6.12 0 0 1-6.12 6.12H6.12A6.12 6.12 0 0 1 0 38.74V7.25a6.12 6.12 0 0 1 6.12-6.12h53.24a6.12 6.12 0 0 1 6.12 6.12z" data-color="1"/>
            <g>
                <g>
                    <path d="M42.39 32.3a.78.78 0 0 0-.77.77.94.94 0 0 1-.83 1H25.72a.94.94 0 0 1-.83-1 .77.77 0 0 0-1.54 0 2.48 2.48 0 0 0 2.29 2.54v1a.77.77 0 0 0 0 1.53v1a.77.77 0 0 0 0 1.53V41A2.38 2.38 0 0 0 28 43.32h2.16V44a1.93 1.93 0 0 0 1.93 1.94h2.31A1.94 1.94 0 0 0 36.34 44v-.63h2.16A2.37 2.37 0 0 0 40.87 41v-.22a.76.76 0 0 0 .58-.92.76.76 0 0 0-.58-.58v-1.11a.76.76 0 0 0 .58-.92.78.78 0 0 0-.58-.59v-1a2.48 2.48 0 0 0 2.29-2.54.76.76 0 0 0-.77-.77zM34.8 44a.4.4 0 0 1-.4.4h-2.29a.4.4 0 0 1-.4-.4v-.63h3.09zm3.69-2.17H28a.83.83 0 0 1-.84-.83v-.2h1.2a.77.77 0 1 0 0-1.53h-1.2v-1h1.2a.77.77 0 0 0 0-1.54h-1.2v-1h12.17v1h-1.45a.77.77 0 1 0 0 1.54h1.45v1h-1.45a.77.77 0 0 0 0 1.54h1.45V41a.83.83 0 0 1-.84.83z" fill="#1e2041" data-color="2"/>
                    <path d="M34.54 36.64h-2.83a.77.77 0 1 0 0 1.54h2.83a.77.77 0 0 0 0-1.54z" fill="#1e2041" data-color="2"/>
                    <path d="M34.54 39.21h-2.83a.77.77 0 1 0 0 1.54h2.83a.77.77 0 0 0 0-1.54z" fill="#1e2041" data-color="2"/>
                    <path d="M34.87 0a.77.77 0 0 0-.87.69V32a.76.76 0 0 0 .77.77H38a3 3 0 0 0 2.95-2.95v-2.21a1.37 1.37 0 0 1 .64-1.16A14.79 14.79 0 0 0 48 14.22 14.21 14.21 0 0 0 34.87 0zm5.81 25.17a3 3 0 0 0-1.31 2.44v2.23A1.41 1.41 0 0 1 38 31.25h-2.43V1.65a12.64 12.64 0 0 1 10.92 12.57 13.23 13.23 0 0 1-5.81 11z" fill="#1e2041" data-color="2"/>
                    <path d="M42.79 16.06a.75.75 0 0 0-1 .49 8.27 8.27 0 0 1-1.41 2.59.76.76 0 0 0 .11 1.08.78.78 0 0 0 1.09-.11 9.81 9.81 0 0 0 1.7-3.11.77.77 0 0 0-.49-1z" fill="#1e2041" data-color="2"/>
                    <path d="M39.3 5.94a.77.77 0 0 0-1.06.25.77.77 0 0 0 .25 1.06 7.76 7.76 0 0 1 3.71 6.05.77.77 0 0 0 .8.7.76.76 0 0 0 .7-.83 9.29 9.29 0 0 0-4.4-7.23z" fill="#1e2041" data-color="2"/>
                    <path d="M24.86 26.47h.11a1.39 1.39 0 0 1 .63 1.16v2.23a3 3 0 0 0 2.95 2.95h3.16a.76.76 0 0 0 .77-.77V3a2.53 2.53 0 0 0-1-2 2.56 2.56 0 0 0-2.29-.51c-.4.12-.8.25-1.19.4a4.94 4.94 0 0 0-6.81 4.49A5 5 0 0 0 18 12.72a4.94 4.94 0 0 0 0 6.83 4.84 4.84 0 0 0 1.44 1.06 5 5 0 0 0 3.95 5.8 4.7 4.7 0 0 0 .92.09 4.89 4.89 0 0 0 .55-.03zm-3.94-4.57a3.38 3.38 0 0 1 0-.84 4.91 4.91 0 0 0 .67.05 4.8 4.8 0 0 0 1.87-.37.77.77 0 1 0-.57-1.42 3.43 3.43 0 0 1-3.89-5.4l.26.22a4.86 4.86 0 0 0 4.53.8 5 5 0 0 0 2.27 2.65.77.77 0 0 0 .74-1.36 3.42 3.42 0 0 1-1.37-4.64.77.77 0 0 0-.3-1.05.78.78 0 0 0-1 .31 4.91 4.91 0 0 0-.59 2.57 3.39 3.39 0 0 1-.76.19 3.42 3.42 0 0 1-1.38-6.69 5 5 0 0 0 1.48 2.3.76.76 0 0 0 1.12-.07.77.77 0 0 0-.07-1.09 3.43 3.43 0 0 1 3.8-5.63.78.78 0 0 0 .84-.09A9.93 9.93 0 0 1 29.62 2a1 1 0 0 1 .92.17A1 1 0 0 1 31 3v2.89A5 5 0 0 0 26 5a.76.76 0 0 0-.48 1 .77.77 0 0 0 1 .49 3.41 3.41 0 0 1 4.4 2v22.76h-2.37a1.41 1.41 0 0 1-1.41-1.41v-2.23a2.86 2.86 0 0 0-.53-1.67 4.92 4.92 0 0 0 2.65-3.85.77.77 0 1 0-1.53-.17 3.43 3.43 0 0 1-6.81 0z" fill="#1e2041" data-color="2"/>
                </g>
            </g>
        </g>
    </g>
</svg>
