<?xml version="1.0" encoding="UTF-8"?>
<svg data-bbox="1.005 0.994 93.674 69.227" viewBox="0 0 95.68 71.22" xmlns="http://www.w3.org/2000/svg" data-type="ugc">
    <g>
        <g>
            <path d="M65.18 38.71v.15a2.07 2.07 0 0 0 1.68.9h3.24A4.25 4.25 0 0 1 74.36 44v4.51a1.11 1.11 0 0 1-1.12 1.1H31.08a3.72 3.72 0 0 1-3-1.45 3.62 3.62 0 0 1-.61-3.25c.16-.57.36-1.14.57-1.7a6.8 6.8 0 0 1-.53-2.64 7.16 7.16 0 0 1 7-7.08A7.26 7.26 0 0 1 45.23 29a7.29 7.29 0 0 1 9.92 0 7.18 7.18 0 0 1 1.53 2 7.5 7.5 0 0 1 2.12-.09 7.26 7.26 0 0 1 4.84 2.61 7 7 0 0 1 1.58 4.42 7.09 7.09 0 0 1-.04.77zm-6.62-5.63a5.52 5.52 0 0 0-1.22 0 7.75 7.75 0 0 1 .07 1 7 7 0 0 1-.53 2.67 1.12 1.12 0 0 1-1.46.61 1.09 1.09 0 0 1-.61-1.43 4.81 4.81 0 0 0-1.2-5.39 5 5 0 0 0-6.61-.18l.33.37a7 7 0 0 1 1.5 4.32 6.85 6.85 0 0 1 0 .91 7.69 7.69 0 0 1-.29 1.24 7.1 7.1 0 0 1 3.83 3.24 1 1 0 0 1 .14.53 1.09 1.09 0 0 1-.58 1 1.13 1.13 0 0 1-1.52-.44 5 5 0 0 0-6.74-2 1.13 1.13 0 0 1-1.52-.43 1.11 1.11 0 0 1 .45-1.5 7.29 7.29 0 0 1 3.73-.85 4.71 4.71 0 0 0-.72-4.68 5 5 0 0 0-8.71 1.68 7.19 7.19 0 0 1 3.33 2.1 1.08 1.08 0 0 1 .28.73 1.11 1.11 0 0 1-.38.83 1.14 1.14 0 0 1-1.58-.1 5 5 0 0 0-3.73-1.67 4.93 4.93 0 0 0-5 4.89 4.7 4.7 0 0 0 .53 2.2 1.09 1.09 0 0 1-.14 1.19c-.2.51-.37 1-.53 1.55a1.49 1.49 0 0 0 1.44 1.9h4.24a7.12 7.12 0 0 1-1.08-1.65 6.94 6.94 0 0 1-.28-5.41 1.11 1.11 0 0 1 1.43-.65 1.09 1.09 0 0 1 .66 1.41 4.81 4.81 0 0 0 .15 3.74 4.91 4.91 0 0 0 2.79 2.54h33.06V44a2 2 0 0 0-2-2h-3.25a4.21 4.21 0 0 1-2.42-.76A7.16 7.16 0 0 1 58.84 45a1.1 1.1 0 1 1-.25-2.19 4.88 4.88 0 0 0 0-9.71z" fill="#2b2854"/>
            <path d="M34 23.58l1.36 9.52c0 .3-.41.61-1 .7s-1.14-.09-1.18-.39l-1.36-9.51c-.05-.3.41-.61 1-.7s1.18.08 1.18.38z" fill="#2b2854"/>
            <path d="M36.25 16.87a6.65 6.65 0 1 1-7.53-5.65 6.67 6.67 0 0 1 7.53 5.65z" fill="none" stroke="#2b2854" stroke-miterlimit="10" stroke-width="2"/>
            <path d="M67.85 31l-.62 9.59c0 .3-.53.51-1.14.47s-1.09-.3-1.09-.6l.62-9.59c0-.31.54-.52 1.15-.48s1.1.32 1.08.61z" fill="#2b2854"/>
            <path d="M74 23.57a6.65 6.65 0 1 1-7.53-5.65A6.67 6.67 0 0 1 74 23.57z" fill="none" stroke="#2b2854" stroke-miterlimit="10" stroke-width="2"/>
            <path d="M73.8 56.85l-5.14-8.12c-.16-.25.13-.73.64-1.06s1.07-.39 1.24-.13l5.14 8.12c.16.25-.13.73-.64 1.05s-1.04.39-1.24.14z" fill="#2b2854"/>
            <path d="M73.2 66.49a6.65 6.65 0 1 1 9.42.13 6.66 6.66 0 0 1-9.42-.13z" fill="none" stroke="#2b2854" stroke-miterlimit="10" stroke-width="2"/>
            <path d="M52.17 57.23l3.43-9c.11-.28.66-.33 1.23-.11s1 .62.85.91l-3.43 9c-.1.28-.66.33-1.23.11s-.95-.63-.85-.91z" fill="#2b2854"/>
            <path d="M44.09 62.52a6.65 6.65 0 1 1 5.53 7.62 6.66 6.66 0 0 1-5.53-7.62z" fill="none" stroke="#2b2854" stroke-miterlimit="10" stroke-width="2"/>
            <path d="M22.31 54.62l6.44-7.13c.21-.23.74-.07 1.2.34s.66.92.46 1.15L24 56.11c-.2.22-.73.07-1.19-.34s-.7-.93-.5-1.15z" fill="#2b2854"/>
            <path d="M12.86 56.62a6.65 6.65 0 1 1 2.4 9.11 6.67 6.67 0 0 1-2.4-9.11z" fill="none" stroke="#2b2854" stroke-miterlimit="10" stroke-width="2"/>
            <path d="M55.5 10.71A6.65 6.65 0 1 1 48 5.06a6.67 6.67 0 0 1 7.5 5.65z" fill="none" stroke="#2b2854" stroke-miterlimit="10" stroke-width="2"/>
            <path d="M1.91 14a6.65 6.65 0 1 1 2.39 9.1A6.66 6.66 0 0 1 1.91 14z" fill="none" stroke="#2b2854" stroke-miterlimit="10" stroke-width="2"/>
            <path d="M22.48 18.5h-7.73c-.25 0-.44-.5-.44-1.11s.19-1.12.44-1.12h7.73c.24 0 .43.5.43 1.12s-.19 1.11-.43 1.11z" fill="#2b2854"/>
            <path d="M93.78 23.67a6.65 6.65 0 1 1-2.4-9.1 6.67 6.67 0 0 1 2.4 9.1z" fill="none" stroke="#2b2854" stroke-miterlimit="10" stroke-width="2"/>
            <path d="M73.21 19.21h7.73c.24 0 .44.5.44 1.12s-.2 1.11-.44 1.11h-7.73c-.24 0-.44-.5-.44-1.11s.23-1.12.44-1.12z" fill="#2b2854"/>
            <path d="M75.06 11a6.65 6.65 0 1 1-2.39-9.1 6.67 6.67 0 0 1 2.39 9.1z" fill="none" stroke="#2b2854" stroke-miterlimit="10" stroke-width="2"/>
            <path d="M54.49 6.55h7.73c.24 0 .44.49.44 1.11s-.2 1.11-.44 1.11h-7.73c-.24 0-.44-.5-.44-1.11s.2-1.11.44-1.11z" fill="#2b2854"/>
        </g>
    </g>
</svg>
