<?xml version="1.0" encoding="UTF-8"?>
<svg data-bbox="0 0 116.1 86.35" viewBox="0 0 116.1 86.35" xmlns="http://www.w3.org/2000/svg" data-type="ugc">
    <g>
        <g>
            <path fill="#f2d65b" d="M116.1 12.72v60.91c0 7.025-5.695 12.72-12.72 12.72H12.72C5.695 86.35 0 80.655 0 73.63V12.72C0 5.695 5.695 0 12.72 0h90.66c7.025 0 12.72 5.695 12.72 12.72z"/>
            <path d="M75.39 46.27a.77.77 0 0 1 0 .15 2 2 0 0 0 1.68.9h3.24a4.25 4.25 0 0 1 4.28 4.21V56a1.11 1.11 0 0 1-1.12 1.1H41.29a3.72 3.72 0 0 1-3-1.45 3.61 3.61 0 0 1-.61-3.25c.16-.57.36-1.14.57-1.69a7 7 0 0 1-.53-2.65 7.14 7.14 0 0 1 7-7.07 7.22 7.22 0 0 1 7.93-5.43 7.53 7.53 0 0 1 2.73.91 7.26 7.26 0 0 1 9.91 0 6.91 6.91 0 0 1 1.53 2.06 7.25 7.25 0 0 1 7 2.51 7 7 0 0 1 1.59 4.43 6.81 6.81 0 0 1-.02.8zm-6.62-5.63a5 5 0 0 0-1.22 0 7.45 7.45 0 0 1 .07.95 7 7 0 0 1-.53 2.68 1.12 1.12 0 0 1-1.46.6 1.09 1.09 0 0 1-.63-1.4 4.82 4.82 0 0 0-1.2-5.39 5 5 0 0 0-6.64-.16l.33.37A7.18 7.18 0 0 1 59 43.53a7.33 7.33 0 0 1-.29 1.23A7.1 7.1 0 0 1 62.5 48a1 1 0 0 1 .14.53 1.1 1.1 0 0 1-.58 1 1.14 1.14 0 0 1-1.52-.44 5 5 0 0 0-6.74-2 1.14 1.14 0 0 1-1.52-.44 1.09 1.09 0 0 1 .45-1.49 7.21 7.21 0 0 1 3.73-.85 5 5 0 0 0 .28-1.08 4.79 4.79 0 0 0-1-3.61A5 5 0 0 0 47 41.33a7.19 7.19 0 0 1 3.34 2.1 1.1 1.1 0 0 1-.08 1.57 1.13 1.13 0 0 1-1.57-.1A5 5 0 0 0 45 43.22a4.93 4.93 0 0 0-5 4.88 4.76 4.76 0 0 0 .53 2.2 1.11 1.11 0 0 1-.14 1.2 15.66 15.66 0 0 0-.52 1.55 1.43 1.43 0 0 0 .24 1.31 1.5 1.5 0 0 0 1.19.58h4.24a7.12 7.12 0 0 1-1.08-1.65 6.92 6.92 0 0 1-.21-5.41 1.12 1.12 0 0 1 1.43-.66 1.1 1.1 0 0 1 .66 1.42 4.83 4.83 0 0 0 .15 3.73 4.9 4.9 0 0 0 2.8 2.54h33v-3.38a2 2 0 0 0-2-2h-3.24a4.23 4.23 0 0 1-2.42-.76 7.12 7.12 0 0 1-5.58 3.78 1.11 1.11 0 0 1-1.24-1 1.1 1.1 0 0 1 1-1.21 4.88 4.88 0 0 0 0-9.72z" fill="#2b2854"/>
            <path d="M44.23 31.15l1.37 9.51c0 .3-.42.61-1 .7s-1.13-.09-1.18-.38L42 31.46c-.05-.3.41-.61 1-.7s1.19.09 1.23.39z" fill="#2b2854"/>
            <path d="M46.46 24.44a6.65 6.65 0 1 1-7.53-5.65 6.67 6.67 0 0 1 7.53 5.65z" fill="none" stroke="#2b2854" stroke-miterlimit="10" stroke-width="2"/>
            <path d="M78.07 38.57l-.63 9.59c0 .3-.53.52-1.14.48s-1.1-.32-1.08-.62l.62-9.59c0-.3.54-.51 1.15-.47s1.09.31 1.08.61z" fill="#2b2854"/>
            <path d="M84.23 31.13a6.65 6.65 0 1 1-7.53-5.65 6.68 6.68 0 0 1 7.53 5.65z" fill="none" stroke="#2b2854" stroke-miterlimit="10" stroke-width="2"/>
            <path d="M84 64.41l-5.14-8.12c-.16-.25.13-.72.64-1s1.08-.39 1.24-.14l5.14 8.12c.17.25-.12.73-.64 1.06s-1.06.34-1.24.08z" fill="#2b2854"/>
            <path d="M83.42 74.05a6.65 6.65 0 1 1 9.41.13 6.65 6.65 0 0 1-9.41-.13z" fill="none" stroke="#2b2854" stroke-miterlimit="10" stroke-width="2"/>
            <path d="M62.39 64.79l3.42-9c.11-.28.66-.33 1.24-.11s1 .63.84.91l-3.43 9c-.1.28-.66.33-1.23.11s-.95-.62-.84-.91z" fill="#2b2854"/>
            <path d="M54.3 70.08a6.65 6.65 0 1 1 5.53 7.62 6.67 6.67 0 0 1-5.53-7.62z" fill="none" stroke="#2b2854" stroke-miterlimit="10" stroke-width="2"/>
            <path d="M32.52 62.18L39 55.05c.2-.22.73-.07 1.19.34s.66.93.46 1.15l-6.45 7.13c-.2.23-.73.08-1.19-.34s-.69-.92-.49-1.15z" fill="#2b2854"/>
            <path d="M23.07 64.19a6.65 6.65 0 1 1 2.4 9.1 6.67 6.67 0 0 1-2.4-9.1z" fill="none" stroke="#2b2854" stroke-miterlimit="10" stroke-width="2"/>
            <path d="M65.71 18.27a6.65 6.65 0 1 1-7.53-5.65 6.67 6.67 0 0 1 7.53 5.65z" fill="none" stroke="#2b2854" stroke-miterlimit="10" stroke-width="2"/>
            <path d="M12.12 21.6a6.65 6.65 0 1 1 2.39 9.11 6.67 6.67 0 0 1-2.39-9.11z" fill="none" stroke="#2b2854" stroke-miterlimit="10" stroke-width="2"/>
            <path d="M32.69 26.06H25c-.25 0-.44-.5-.44-1.11s.19-1.11.44-1.11h7.73c.24 0 .44.5.44 1.11s-.24 1.11-.48 1.11z" fill="#2b2854"/>
            <path d="M104 31.24a6.65 6.65 0 1 1-2.4-9.11 6.67 6.67 0 0 1 2.4 9.11z" fill="none" stroke="#2b2854" stroke-miterlimit="10" stroke-width="2"/>
            <path d="M83.42 26.78h7.73c.24 0 .44.5.44 1.11s-.2 1.11-.44 1.11h-7.73c-.24 0-.44-.5-.44-1.11s.2-1.11.44-1.11z" fill="#2b2854"/>
            <path d="M85.27 18.57a6.65 6.65 0 1 1-2.39-9.11 6.66 6.66 0 0 1 2.39 9.11z" fill="none" stroke="#2b2854" stroke-miterlimit="10" stroke-width="2"/>
            <path d="M64.7 14.11h7.73c.25 0 .44.5.44 1.11s-.19 1.11-.44 1.11H64.7c-.24 0-.44-.49-.44-1.11s.2-1.11.44-1.11z" fill="#2b2854"/>
        </g>
    </g>
</svg>
