<?xml version="1.0" encoding="UTF-8"?>
<svg data-bbox="0 0 65.48 46.16" viewBox="0 0 65.48 46.16" xmlns="http://www.w3.org/2000/svg" data-type="color">
    <g>
        <g>
            <path fill="#8e6cac" d="M65.48 7.45v31.49a6.12 6.12 0 0 1-6.12 6.12H6.12A6.12 6.12 0 0 1 0 38.94V7.45a6.12 6.12 0 0 1 6.12-6.12h53.24a6.12 6.12 0 0 1 6.12 6.12z" data-color="1"/>
            <g>
                <g>
                    <path d="M39.88 46.16H22.1a3.65 3.65 0 0 1-3.42-3.83V3.84A3.65 3.65 0 0 1 22.1 0h17.78a3.65 3.65 0 0 1 3.41 3.84v38.49a3.64 3.64 0 0 1-3.41 3.83zM22.1 1.54a2.19 2.19 0 0 0-2.05 2.3v38.49a2.19 2.19 0 0 0 2.05 2.3h17.78a2.19 2.19 0 0 0 2-2.3V3.84a2.21 2.21 0 0 0-2-2.31z" fill="#1e2041" data-color="2"/>
                    <path d="M36.05 4.45H25.93a1.84 1.84 0 0 1-1.73-1.51l-2.43-1.5a.8.8 0 0 1-.33-.86.69.69 0 0 1 .66-.58h17.78a.7.7 0 0 1 .66.58.79.79 0 0 1-.34.86l-2.43 1.5a1.83 1.83 0 0 1-1.72 1.51zM24.76 1.54l.4.24a.81.81 0 0 1 .36.68.44.44 0 0 0 .41.46h10.12a.44.44 0 0 0 .41-.46.8.8 0 0 1 .35-.68l.4-.24z" fill="#1e2041" data-color="2"/>
                    <path d="M37 34.3H25a.77.77 0 0 1 0-1.53h12a.76.76 0 0 1 .7.83.75.75 0 0 1-.7.7z" fill="#1e2041" data-color="2"/>
                    <path d="M26 35.59a.64.64 0 0 1-.51-.26l-1-1.29a.84.84 0 0 1 0-1l1-1.29a.64.64 0 0 1 .88-.15l.08.07a.85.85 0 0 1 .07 1.08l-.61.79.61.78a.85.85 0 0 1-.07 1.09.67.67 0 0 1-.45.18z" fill="#1e2041" data-color="2"/>
                    <path d="M37 34.3H25a.77.77 0 0 1 0-1.53h12a.76.76 0 0 1 .7.83.75.75 0 0 1-.7.7z" fill="#1e2041" data-color="2"/>
                    <path d="M54.64 15h-12a.77.77 0 0 1 0-1.53h12a.76.76 0 0 1 .7.83.75.75 0 0 1-.7.7z" fill="#1e2041" data-color="2"/>
                    <path d="M36.48 20.77l-12.1-8a.9.9 0 0 1-.38-1.15.71.71 0 0 1 1-.26l.08.06 12.1 8a.9.9 0 0 1 .34 1.12.71.71 0 0 1-1 .26z" fill="#1e2041" data-color="2"/>
                    <path d="M25.08 20.77l12.1-8a.9.9 0 0 0 .34-1.12.71.71 0 0 0-1-.26l-.08.06-12.1 8a.9.9 0 0 0-.34 1.12.71.71 0 0 0 1 .26z" fill="#1e2041" data-color="2"/>
                    <path d="M23.6 40.47h-12a.77.77 0 0 1 0-1.53h12a.76.76 0 0 1 .7.83.75.75 0 0 1-.7.7z" fill="#1e2041" data-color="2"/>
                    <path d="M36 35.59a.67.67 0 0 1-.45-.18.86.86 0 0 1-.07-1.09l.61-.78-.61-.79a.85.85 0 0 1 .07-1.08.63.63 0 0 1 .9 0l.07.08 1 1.29a.84.84 0 0 1 0 1l-1 1.29a.65.65 0 0 1-.52.26z" fill="#1e2041" data-color="2"/>
                    <path d="M31 30.1a2.05 2.05 0 1 1 1.8-2.28A2 2 0 0 1 31 30.1zm0-2.55a.52.52 0 0 0-.57.45.51.51 0 0 0 1 .12v-.06a.49.49 0 0 0-.45-.51z" fill="#1e2041" data-color="2"/>
                    <path d="M37.4 42.68H24.57A1.67 1.67 0 0 1 23 40.92v-2.43a1.67 1.67 0 0 1 1.56-1.76H37.4a1.67 1.67 0 0 1 1.6 1.76v2.43a1.67 1.67 0 0 1-1.6 1.76zm-12.83-4.41a.21.21 0 0 0-.2.22v2.43a.21.21 0 0 0 .2.22H37.4a.2.2 0 0 0 .2-.22v-2.43a.2.2 0 0 0-.2-.22z" fill="#1e2041" data-color="2"/>
                    <path d="M35.85 10.26H25.69a3.09 3.09 0 0 0-2.89 3.25v5.18a3.09 3.09 0 0 0 2.89 3.25h10.17a3.08 3.08 0 0 0 2.9-3.25v-5.18a3.09 3.09 0 0 0-2.91-3.25zm1.94 8.27A2.33 2.33 0 0 1 35.61 21H26a2.34 2.34 0 0 1-2.19-2.45v-4.87A2.35 2.35 0 0 1 26 11.22h9.66a2.34 2.34 0 0 1 2.18 2.46z" fill="#1e2041" data-color="2"/>
                </g>
            </g>
        </g>
    </g>
</svg>
