<?xml version="1.0" encoding="UTF-8"?>
<svg data-bbox="-0.014 0 64.509 67" viewBox="0 0 64.47 66.98" xmlns="http://www.w3.org/2000/svg" data-type="color">
    <g>
        <g>
            <path d="M42.06 67H16.27c-2.74 0-5-2.5-5-5.57V5.56c0-3.06 2.22-5.56 5-5.56h25.79c2.73 0 5 2.5 5 5.56v55.85c-.06 3.07-2.27 5.59-5 5.59zM16.27 2.23a3.17 3.17 0 0 0-3 3.33v55.85a3.18 3.18 0 0 0 3 3.34h25.79a3.17 3.17 0 0 0 3-3.34V5.56a3.17 3.17 0 0 0-3-3.33z" fill="#2b2854" data-color="1"/>
            <path d="M36.5 6.45H21.82a2.66 2.66 0 0 1-2.5-2.18l-3.53-2.18a1.15 1.15 0 0 1-.48-1.25 1 1 0 0 1 1-.84h25.75a1 1 0 0 1 1 .84 1.17 1.17 0 0 1-.49 1.25L39 4.27a2.65 2.65 0 0 1-2.5 2.18zM20.13 2.23l.58.35a1.15 1.15 0 0 1 .52 1 .63.63 0 0 0 .59.67H36.5a.64.64 0 0 0 .6-.67 1.14 1.14 0 0 1 .51-1l.59-.35z" fill="#2b2854" data-color="1"/>
            <path d="M37.89 49.77H20.43a1.12 1.12 0 0 1 0-2.23h17.46a1.12 1.12 0 0 1 0 2.23z" fill="#2b2854" data-color="1"/>
            <path d="M21.87 51.64a1 1 0 0 1-.75-.39l-1.44-1.87a1.22 1.22 0 0 1 0-1.45l1.44-1.87a.92.92 0 0 1 1.4-.11 1.21 1.21 0 0 1 .1 1.57l-.88 1.14.88 1.14a1.2 1.2 0 0 1-.1 1.56.91.91 0 0 1-.65.28z" fill="#2b2854" data-color="1"/>
            <path d="M37.89 49.77H20.43a1.12 1.12 0 0 1 0-2.23h17.46a1.12 1.12 0 0 1 0 2.23z" fill="#2b2854" data-color="1"/>
            <path d="M63.48 21.75H46a1.12 1.12 0 0 1 0-2.23h17.48a1.12 1.12 0 0 1 0 2.23z" fill="#2b2854" data-color="1"/>
            <path d="M37.13 30.14L19.58 18.48a1.29 1.29 0 0 1-.49-1.62 1 1 0 0 1 1.5-.29l17.55 11.65a1.31 1.31 0 0 1 .5 1.62 1 1 0 0 1-1.51.3z" fill="#2b2854" data-color="1"/>
            <path d="M20.59 30.14l17.55-11.66a1.3 1.3 0 0 0 .5-1.62 1 1 0 0 0-1.51-.29L19.58 28.22a1.29 1.29 0 0 0-.49 1.62 1 1 0 0 0 1.5.3z" fill="#2b2854" data-color="1"/>
            <path d="M18.45 58.72H1a1.12 1.12 0 0 1 0-2.23h17.45a1.12 1.12 0 0 1 0 2.23z" fill="#2b2854" data-color="1"/>
            <path d="M36.45 51.64a.91.91 0 0 1-.65-.28 1.2 1.2 0 0 1-.1-1.56l.88-1.14-.88-1.14a1.21 1.21 0 0 1 .1-1.52.92.92 0 0 1 1.4.11l1.44 1.87a1.22 1.22 0 0 1 0 1.45l-1.44 1.82a1 1 0 0 1-.75.39z" fill="#2b2854" data-color="1"/>
            <path d="M29.16 43.67a3 3 0 0 1 0-5.92 3 3 0 0 1 0 5.92zm0-3.7a.74.74 0 1 0 .66.74.71.71 0 0 0-.66-.71z" fill="#2b2854" data-color="1"/>
            <path d="M38.47 61.92H19.85a2.42 2.42 0 0 1-2.27-2.55v-3.53a2.42 2.42 0 0 1 2.27-2.55h18.62a2.42 2.42 0 0 1 2.27 2.55v3.53a2.42 2.42 0 0 1-2.27 2.55zm-18.62-6.4a.3.3 0 0 0-.28.32v3.53a.3.3 0 0 0 .28.32h18.62a.3.3 0 0 0 .29-.32v-3.53a.3.3 0 0 0-.29-.32z" fill="#2b2854" data-color="1"/>
            <path d="M36.22 14.88H21.48a4.48 4.48 0 0 0-4.19 4.72v7.52a4.47 4.47 0 0 0 4.19 4.71h14.74a4.48 4.48 0 0 0 4.22-4.71V19.6a4.49 4.49 0 0 0-4.22-4.72zm2.81 12a3.38 3.38 0 0 1-3.16 3.56h-14a3.39 3.39 0 0 1-3.17-3.56v-7a3.39 3.39 0 0 1 3.17-3.56h14A3.38 3.38 0 0 1 39 19.84z" fill="#2b2854" data-color="1"/>
        </g>
    </g>
</svg>
