<?xml version="1.0" encoding="UTF-8"?>
<svg data-bbox="0 0 35.75 67" viewBox="0 0 35.71 66.98" xmlns="http://www.w3.org/2000/svg" data-type="color">
    <g>
        <g>
            <path d="M30.75 67H5c-2.74 0-5-2.5-5-5.57V5.56C0 2.5 2.22 0 5 0h25.75c2.73 0 5 2.5 5 5.56v55.85c-.04 3.07-2.27 5.59-5 5.59zM5 2.23a3.17 3.17 0 0 0-3 3.33v55.85a3.18 3.18 0 0 0 3 3.34h25.75a3.17 3.17 0 0 0 3-3.34V5.56a3.17 3.17 0 0 0-3-3.33z" fill="#2b2854" data-color="1"/>
            <path d="M25.19 6.45H10.51A2.66 2.66 0 0 1 8 4.27L4.48 2.09A1.17 1.17 0 0 1 4 .84 1 1 0 0 1 5 0h25.75a1 1 0 0 1 1 .84 1.18 1.18 0 0 1-.48 1.25L27.7 4.27a2.67 2.67 0 0 1-2.51 2.18zM8.82 2.23l.59.35a1.16 1.16 0 0 1 .51 1 .64.64 0 0 0 .59.67h14.68a.64.64 0 0 0 .6-.67 1.16 1.16 0 0 1 .51-1l.59-.35z" fill="#2b2854" data-color="1"/>
            <path d="M27.16 61.92H8.55a2.42 2.42 0 0 1-2.27-2.55v-3.53a2.42 2.42 0 0 1 2.27-2.55h18.61a2.42 2.42 0 0 1 2.27 2.55v3.53a2.42 2.42 0 0 1-2.27 2.55zm-18.61-6.4a.3.3 0 0 0-.29.32v3.53a.3.3 0 0 0 .29.32h18.61a.3.3 0 0 0 .29-.32v-3.53a.3.3 0 0 0-.29-.32z" fill="#2b2854" data-color="1"/>
            <path d="M28.21 8.85l-1.62-.61a2.68 2.68 0 0 0-.88-.16 2.52 2.52 0 0 0-2.36 1.64l-.72 1.92-.63-.23-1.67 4.46.71.27L10.8 43.63h.15l.46 6.52a.5.5 0 0 0 .32.42.45.45 0 0 0 .16 0 .52.52 0 0 0 .35-.14l2.4-2.43 2.19-2.21.15.06 10.25-27.41.71.27 1.66-4.47L29 14l.71-1.92a2.52 2.52 0 0 0-1.5-3.23zM12.3 49.07l-.11-1.6 1.24.46zm1.87-1.89l-2.06-.77-.11-2.28 3.83 1.43zm13.2-29.72l-.26-.09-.23-.09-.22-.08-.36-.14-3.65-1.36-.36-.13-.22-.08-.23-.09-.26-.09 1-2.66.18.06h.08l.37.13h.08l4.37 1.62h.08l.37.14h.09l.17.07zm1.42-5.71l-.63 1.69-4.54-1.69.63-1.69a1.56 1.56 0 0 1 1.46-1 1.44 1.44 0 0 1 .54.1l1.62.6a1.56 1.56 0 0 1 .92 1.99z" fill="#2b2854" data-color="1"/>
        </g>
    </g>
</svg>
