<?xml version="1.0" encoding="UTF-8"?>
<svg data-bbox="0 0 116.1 86.35" viewBox="0 0 116.1 86.35" xmlns="http://www.w3.org/2000/svg" data-type="color">
    <g>
        <g>
            <path fill="#f2d65b" d="M116.1 12.72v60.91c0 7.025-5.695 12.72-12.72 12.72H12.72C5.695 86.35 0 80.655 0 73.63V12.72C0 5.695 5.695 0 12.72 0h90.66c7.025 0 12.72 5.695 12.72 12.72z" data-color="1"/>
            <path d="M71.93 77.43H46.14c-2.73 0-5-2.5-5-5.57V16c0-3.06 2.22-5.56 5-5.56h25.79c2.74 0 5 2.5 5 5.56v55.86c-.04 3.07-2.26 5.57-5 5.57zM46.14 12.68a3.17 3.17 0 0 0-3 3.33v55.85a3.17 3.17 0 0 0 3 3.34h25.79a3.18 3.18 0 0 0 3-3.34V16a3.17 3.17 0 0 0-3-3.33z" fill="#2b2854" data-color="2"/>
            <path d="M66.38 16.9H51.7a2.65 2.65 0 0 1-2.5-2.18l-3.53-2.18a1.17 1.17 0 0 1-.49-1.25 1 1 0 0 1 1-.84h25.75a1 1 0 0 1 1 .84 1.17 1.17 0 0 1-.49 1.25l-3.53 2.18a2.66 2.66 0 0 1-2.53 2.18zM50 12.68l.58.36a1.11 1.11 0 0 1 .51 1 .64.64 0 0 0 .6.67h14.69A.63.63 0 0 0 67 14a1.12 1.12 0 0 1 .52-1l.58-.36z" fill="#2b2854" data-color="2"/>
            <path d="M68.35 72.37H49.73a2.42 2.42 0 0 1-2.27-2.55v-3.53a2.42 2.42 0 0 1 2.27-2.55h18.62a2.42 2.42 0 0 1 2.27 2.55v3.53a2.42 2.42 0 0 1-2.27 2.55zM49.73 66a.3.3 0 0 0-.29.32v3.53a.3.3 0 0 0 .29.32h18.62a.3.3 0 0 0 .28-.32v-3.56a.3.3 0 0 0-.28-.32z" fill="#2b2854" data-color="2"/>
            <path d="M69.4 19.3l-1.63-.61a2.63 2.63 0 0 0-.88-.16 2.54 2.54 0 0 0-2.36 1.64l-.71 1.92-.63-.23-1.66 4.46.71.27L52 54.08l.15.05.46 6.52a.48.48 0 0 0 .31.42.51.51 0 0 0 .17 0 .48.48 0 0 0 .34-.14l2.41-2.43L58 56.32l.14.06 10.27-27.49.71.27 1.67-4.47-.63-.23.72-1.92a2.53 2.53 0 0 0-1.48-3.24zM53.49 59.52l-.12-1.6 1.24.46zm1.87-1.89l-2.06-.77-.16-2.28L57 56zm13.19-29.72l-.25-.09-.23-.09-.23-.08-.36-.14-3.64-1.35-.36-.16-.22-.08-.26-.07-.26-.09 1-2.66.17.07H64l.36.13h.09l4.38 1.7h.09l.37.14h.08l.17.07zM70 22.2l-.63 1.69-4.56-1.69.63-1.69a1.56 1.56 0 0 1 1.45-1 1.49 1.49 0 0 1 .55.1l1.62.6A1.56 1.56 0 0 1 70 22.2z" fill="#2b2854" data-color="2"/>
        </g>
    </g>
</svg>
