<?xml version="1.0" encoding="UTF-8"?>
<svg data-bbox="0 0 536.97 93.25" viewBox="0 0 536.97 93.25" xmlns="http://www.w3.org/2000/svg" data-type="ugc">
    <g>
        <path style="isolation:isolate" fill="#eeeeee" d="M264.91 12.12v69.01c0 6.694-5.426 12.12-12.12 12.12H148.82c-6.694 0-12.12-5.426-12.12-12.12V12.12C136.7 5.426 142.126 0 148.82 0h103.97c6.694 0 12.12 5.426 12.12 12.12z"/>
        <path style="isolation:isolate" fill="#eeeeee" d="M128.21 12.12v69.01c0 6.694-5.426 12.12-12.12 12.12H12.12C5.426 93.25 0 87.824 0 81.13V12.12C0 5.426 5.426 0 12.12 0h103.97c6.694 0 12.12 5.426 12.12 12.12z"/>
        <path style="isolation:isolate" fill="#eeeeee" d="M401.61 12.12v69.01c0 6.694-5.426 12.12-12.12 12.12H285.52c-6.694 0-12.12-5.426-12.12-12.12V12.12C273.4 5.426 278.826 0 285.52 0h103.97c6.694 0 12.12 5.426 12.12 12.12z"/>
        <path style="isolation:isolate" fill="#eeeeee" d="M536.97 12.12v69.01c0 6.694-5.426 12.12-12.12 12.12H420.88c-6.694 0-12.12-5.426-12.12-12.12V12.12c0-6.694 5.426-12.12 12.12-12.12h103.97c6.694 0 12.12 5.426 12.12 12.12z"/>
        <g style="isolation:isolate">
            <text transform="translate(172.28 28.44)" style="isolation:isolate" font-family="SofiaPro-Bold,Sofia Pro" font-weight="700" font-size="11.66" fill="#322a2a">
                ITER<tspan y="0" x="24.44" letter-spacing="-.05em">A</tspan><tspan y="0" x="31.48">TION</tspan>
            </text>
            <text transform="translate(152.45 42.43)" style="isolation:isolate" font-family="SofiaPro,Sofia Pro" font-size="11.66" fill="#322a2a">
                Fix the pain points
            </text>
            <text transform="translate(146.33 56.41)" style="isolation:isolate" font-family="SofiaPro,Sofia Pro" font-size="11.66" fill="#322a2a">
                poin<tspan y="0" x="23.23" letter-spacing="-.01em">t</tspan><tspan y="0" x="26.97">ed ou</tspan><tspan y="0" x="56.91" letter-spacing="-.02em">t</tspan><tspan y="0" x="60.52" letter-spacing="-.01em"> </tspan><tspan y="0" x="63.38">f</tspan><tspan y="0" x="67.38" letter-spacing="-.01em">r</tspan><tspan y="0" x="71.84">om the</tspan>
            </text>
            <text transform="translate(157.97 70.4)" style="isolation:isolate" font-family="SofiaPro,Sofia Pro" font-size="11.66" fill="#322a2a">
                usabilit<tspan y="0" x="38.23" letter-spacing="-.03em">y</tspan><tspan y="0" x="43.87"> </tspan><tspan y="0" x="46.9" letter-spacing="-.01em">t</tspan><tspan y="0" x="50.64">esting.</tspan>
            </text>
        </g>
        <g style="isolation:isolate">
            <text transform="translate(46.8 28.44)" style="isolation:isolate" font-family="SofiaPro-Bold,Sofia Pro" font-weight="700" font-size="11.66" fill="#322a2a">
                IDE<tspan y="0" x="18.54" letter-spacing="-.05em">A</tspan><tspan y="0" x="25.58">TE</tspan>
            </text>
            <text transform="translate(21.44 42.43)" style="isolation:isolate" font-family="SofiaPro,Sofia Pro" font-size="11.66" fill="#322a2a">
                Explo<tspan y="0" x="29.09" letter-spacing="-.01em">r</tspan><tspan y="0" x="33.56">e the n</tspan><tspan y="0" x="69.72" letter-spacing="-.01em">e</tspan><tspan y="0" x="76.12" letter-spacing="-.02em">w</tspan>
            </text>
            <text transform="translate(18.58 56.41)" style="isolation:isolate" font-family="SofiaPro,Sofia Pro" font-size="11.66" fill="#322a2a">
                ideas <tspan y="0" x="31.71" letter-spacing="-.01em">t</tspan><tspan y="0" x="35.46">o enhan</tspan><tspan y="0" x="78.73" letter-spacing="-.01em">c</tspan><tspan y="0" x="84.56">e</tspan>
            </text>
            <text transform="translate(43.11 70.4)" style="isolation:isolate" font-family="SofiaPro,Sofia Pro" font-size="11.66" fill="#322a2a">
                ou<tspan y="0" x="13.3" letter-spacing="-.02em">r</tspan><tspan y="0" x="17.62"> app</tspan>
            </text>
        </g>
        <text transform="translate(307.45 22.38)" style="isolation:isolate" font-family="SofiaPro-Bold,Sofia Pro" font-weight="700" font-size="11.66" fill="#322a2a">
            SKE<tspan y="0" x="20.6" letter-spacing="-.02em">T</tspan><tspan y="0" x="27.12">CHING</tspan>
        </text>
        <g style="isolation:isolate">
            <text transform="translate(450.6 22.38)" style="isolation:isolate" font-family="SofiaPro-Bold,Sofia Pro" font-weight="700" font-size="11.66" fill="#322a2a">
                T<tspan y="0" x="6.71" letter-spacing="-.01em">E</tspan><tspan y="0" x="13.33" letter-spacing="-.01em">S</tspan><tspan y="0" x="20.05" letter-spacing="0">TING</tspan>
            </text>
            <text transform="translate(420.11 36.37)" style="isolation:isolate" font-family="SofiaPro,Sofia Pro" font-size="11.66" fill="#322a2a">
                Conduc<tspan y="0" x="40.92" letter-spacing="-.02em">t</tspan><tspan y="0" x="44.52"> the se</tspan><tspan y="0" x="79.25" letter-spacing="-.01em">c</tspan><tspan y="0" x="85.07" letter-spacing="0">ond</tspan>
            </text>
            <text transform="translate(426.78 50.35)" style="isolation:isolate" font-family="SofiaPro,Sofia Pro" font-size="11.66" fill="#322a2a">
                <tspan letter-spacing="-.01em">r</tspan><tspan y="0" x="4.46">ound o</tspan><tspan y="0" x="41.24" letter-spacing="-.02em">f</tspan><tspan y="0" x="44.99"> usabilit</tspan><tspan y="0" x="86.25" letter-spacing="-.02em">y</tspan>
            </text>
            <text transform="translate(428.47 64.34)" style="isolation:isolate" font-family="SofiaPro,Sofia Pro" font-size="11.66" fill="#322a2a">
                <tspan letter-spacing="-.01em">t</tspan><tspan y="0" x="3.74">esting with both</tspan>
            </text>
            <text transform="translate(418.8 78.33)" style="isolation:isolate" font-family="SofiaPro,Sofia Pro" font-size="11.66" fill="#322a2a">
                mothe<tspan y="0" x="34.08" letter-spacing="0">r</tspan><tspan y="0" x="38.64">s and nu</tspan><tspan y="0" x="83.76" letter-spacing="0">r</tspan><tspan y="0" x="88.31" letter-spacing="0">ses.</tspan>
            </text>
        </g>
        <text transform="translate(304.23 36.37)" font-size="12" fill="#1d1d1b" font-family="SofiaPro,Sofia Pro">
            Create more<tspan y="14.4" x="-10.82">s</tspan><tspan y="14.4" x="-5.55" letter-spacing="-.03em">k</tspan><tspan y="14.4" x=".13">etches to idete</tspan><tspan y="28.8" x="-19.91">possible solutions to</tspan><tspan y="43.2" x="-12.32">fix the painpoints</tspan>
        </text>
    </g>
</svg>
